<svg width="200" height="200" viewBox="0 0 200 200" fill="none" xmlns="http://www.w3.org/2000/svg">
<g clip-path="url(#clip0_18_6)">
<rect width="200" height="200" rx="41" fill="#03B83C"/>
<path fill-rule="evenodd" clip-rule="evenodd" d="M121.049 100.158L162 142.218V162H142.625V147.13H126.571V130.852H111.207L106.766 116.184C99.6922 120.965 91.1107 123.767 81.8632 123.767C57.6434 123.767 38 104.564 38 80.8833C38 57.2021 57.6434 38 81.8632 38C106.084 38 125.724 57.2032 125.724 80.8833C125.724 87.8157 124.038 94.3623 121.049 100.158ZM75.5592 67.1444C79.8813 67.1444 83.39 70.6986 83.39 75.0835C83.39 79.4684 79.8813 83.0225 75.5592 83.0225C71.2342 83.0225 67.7285 79.4684 67.7285 75.0835C67.7275 70.6986 71.2342 67.1444 75.5592 67.1444Z" fill="black"/>
</g>
<defs>
<clipPath id="clip0_18_6">
<rect width="200" height="200" fill="white"/>
</clipPath>
</defs>
</svg>
